<svg width="66" height="65" viewBox="0 0 66 65" fill="none" xmlns="http://www.w3.org/2000/svg">
<g filter="url(#filter0_d_308_380)">
<path fill-rule="evenodd" clip-rule="evenodd" d="M9.87451 5.46881C9.09786 5.46881 8.46826 6.09841 8.46826 6.87506C8.46826 7.65171 9.09786 8.28131 9.87451 8.28131H15.0265L16.0102 12.2161L20.5805 30.4972C17.9885 30.769 15.9683 32.9611 15.9683 35.6251C15.9683 38.4728 18.2768 40.7813 21.1245 40.7813H49.8745C50.6512 40.7813 51.2808 40.1517 51.2808 39.3751C51.2808 38.5984 50.6512 37.9688 49.8745 37.9688H21.1245C19.8301 37.9688 18.7808 36.9195 18.7808 35.6251C18.7808 34.3306 19.8301 33.2813 21.1245 33.2813H22.3745H49.8745C50.5198 33.2813 51.0823 32.8421 51.2388 32.2161L56.2388 12.2161C56.3438 11.796 56.2494 11.351 55.9829 11.0096C55.7164 10.6683 55.3075 10.4688 54.8745 10.4688H18.4725L17.4888 6.534C17.3323 5.90798 16.7698 5.46881 16.1245 5.46881H9.87451ZM22.3745 45.4688C20.2171 45.4688 18.4683 47.2177 18.4683 49.3751C18.4683 51.5324 20.2171 53.2813 22.3745 53.2813C24.5319 53.2813 26.2808 51.5324 26.2808 49.3751C26.2808 47.2177 24.5319 45.4688 22.3745 45.4688ZM47.3745 45.4688C45.2172 45.4688 43.4683 47.2177 43.4683 49.3751C43.4683 51.5324 45.2172 53.2813 47.3745 53.2813C49.5319 53.2813 51.2808 51.5324 51.2808 49.3751C51.2808 47.2177 49.5319 45.4688 47.3745 45.4688Z" fill="#A60221"/>
</g>
<defs>
<filter id="filter0_d_308_380" x="0.866667" y="0" width="64.2667" height="64.2667" filterUnits="userSpaceOnUse" color-interpolation-filters="sRGB">
<feFlood flood-opacity="0" result="BackgroundImageFix"/>
<feColorMatrix in="SourceAlpha" type="matrix" values="0 0 0 0 0 0 0 0 0 0 0 0 0 0 0 0 0 0 127 0" result="hardAlpha"/>
<feOffset dy="2.13333"/>
<feGaussianBlur stdDeviation="1.06667"/>
<feComposite in2="hardAlpha" operator="out"/>
<feColorMatrix type="matrix" values="0 0 0 0 0 0 0 0 0 0 0 0 0 0 0 0 0 0 0.25 0"/>
<feBlend mode="normal" in2="BackgroundImageFix" result="effect1_dropShadow_308_380"/>
<feBlend mode="normal" in="SourceGraphic" in2="effect1_dropShadow_308_380" result="shape"/>
</filter>
</defs>
</svg>
