<svg width="29" height="29" viewBox="0 0 29 29" fill="none" xmlns="http://www.w3.org/2000/svg">
<path d="M20.93 3.755C21.7863 4.24925 22.574 4.85375 23.273 5.553M14.5 2V5" stroke="#198217" stroke-width="2" stroke-miterlimit="10"/>
<path d="M15.5 4C9.149 4 4 9.149 4 15.5C4 21.851 9.149 27 15.5 27C21.851 27 27 21.851 27 15.5C27 9.149 21.851 4 15.5 4ZM16.5 17.223V18H14.5V17.223C13.905 16.877 13.5 16.239 13.5 15.5C13.5 14.762 13.905 14.124 14.5 13.777V6H16.5V13.777C17.095 14.123 17.5 14.761 17.5 15.5C17.5 16.238 17.095 16.876 16.5 17.223Z" fill="#198217"/>
</svg>
