<svg width="28" height="32" viewBox="0 0 28 32" fill="none" xmlns="http://www.w3.org/2000/svg">
<g filter="url(#filter0_d_308_1009)">
<path d="M23 3.99998H19.9C19.4215 1.67358 17.3751 0.003 15 0H13C10.6248 0.003 8.57837 1.67358 8.09997 3.99998H4.99998C4.4477 3.99998 4 4.44769 4 4.99997C4 5.55225 4.4477 6 4.99998 6H5.99997V19C6.0033 21.76 8.23994 23.9967 11 24H17C19.76 23.9967 21.9967 21.76 22 19V6H23C23.5523 6 24 5.5523 24 5.00002C24 4.44773 23.5523 3.99998 23 3.99998ZM13 17C13 17.5523 12.5523 18 12 18C11.4477 18 11 17.5523 11 17V11C11 10.4477 11.4477 10 12 10C12.5522 10 13 10.4477 13 11V17H13ZM17 17C17 17.5523 16.5523 18 16 18C15.4477 18 15 17.5523 15 17V11C15 10.4477 15.4477 10 16 10C16.5523 10 17 10.4477 17 11V17ZM10.171 3.99998C10.5963 2.80228 11.729 2.00152 13 1.99997H15C16.271 2.00152 17.4037 2.80228 17.829 3.99998H10.171Z" fill="#A60221"/>
</g>
<defs>
<filter id="filter0_d_308_1009" x="-2" y="0" width="32" height="32" filterUnits="userSpaceOnUse" color-interpolation-filters="sRGB">
<feFlood flood-opacity="0" result="BackgroundImageFix"/>
<feColorMatrix in="SourceAlpha" type="matrix" values="0 0 0 0 0 0 0 0 0 0 0 0 0 0 0 0 0 0 127 0" result="hardAlpha"/>
<feOffset dy="4"/>
<feGaussianBlur stdDeviation="2"/>
<feComposite in2="hardAlpha" operator="out"/>
<feColorMatrix type="matrix" values="0 0 0 0 0 0 0 0 0 0 0 0 0 0 0 0 0 0 0.25 0"/>
<feBlend mode="normal" in2="BackgroundImageFix" result="effect1_dropShadow_308_1009"/>
<feBlend mode="normal" in="SourceGraphic" in2="effect1_dropShadow_308_1009" result="shape"/>
</filter>
</defs>
</svg>
