<svg width="184" height="79" viewBox="0 0 184 79" fill="none" xmlns="http://www.w3.org/2000/svg">
<path d="M23.0675 70.16C22.9715 70.4 22.6475 70.52 22.0955 70.52C21.5435 70.52 21.0635 70.364 20.6555 70.052C20.3675 69.764 20.1755 69.536 20.0795 69.368C20.0075 69.224 20.0555 68.96 20.2235 68.576C20.3915 68.216 20.6795 67.568 21.0875 66.632C21.1835 66.056 21.3515 65.48 21.5915 64.904C21.8315 64.304 22.0115 63.884 22.1315 63.644C22.2275 63.308 22.4195 62.756 22.7075 61.988C23.0195 61.196 23.3675 60.32 23.7515 59.36C24.1595 58.4 24.5435 57.5 24.9035 56.66C25.2635 55.796 25.5275 55.148 25.6955 54.716C26.1035 53.756 26.5235 52.748 26.9555 51.692C27.3875 50.636 27.9755 49.304 28.7195 47.696C28.8155 47.456 28.7795 47.204 28.6115 46.94C28.4435 46.676 28.1555 46.544 27.7475 46.544C27.5075 46.28 27.3755 46.004 27.3515 45.716C27.3275 45.404 27.4475 45.188 27.7115 45.068L31.0235 43.952C32.1515 43.688 33.3035 43.616 34.4795 43.736C35.6795 43.832 36.8075 44.156 37.8635 44.708C39.0155 45.38 39.8555 46.124 40.3835 46.94C40.9115 47.756 41.1995 48.584 41.2475 49.424C41.3195 50.24 41.2235 50.984 40.9595 51.656C40.7675 52.16 40.3955 52.712 39.8435 53.312C39.3155 53.912 38.6915 54.512 37.9715 55.112C37.2755 55.712 36.5435 56.264 35.7755 56.768C35.0315 57.248 34.3355 57.62 33.6875 57.884C33.0875 58.172 32.4155 58.472 31.6715 58.784C30.9275 59.072 30.2075 59.324 29.5115 59.54C29.1275 59.636 28.6715 59.684 28.1435 59.684C27.6155 59.684 27.2195 59.636 26.9555 59.54L26.3435 60.692C26.1035 61.556 25.6835 62.84 25.0835 64.544C24.5075 66.248 23.8355 68.12 23.0675 70.16ZM37.3595 70.844C37.1675 70.916 36.8435 70.94 36.3875 70.916C35.9555 70.892 35.4635 70.7 34.9115 70.34C33.8555 69.716 32.7995 68.96 31.7435 68.072C30.6875 67.184 29.4995 65.984 28.1795 64.472C27.6755 63.872 27.2915 63.272 27.0275 62.672C26.7875 62.072 26.4755 61.316 26.0915 60.404L25.5875 58.46L26.9555 57.56L28.5395 58.856C28.9235 59.696 29.3675 60.5 29.8715 61.268C30.3995 62.036 30.9275 62.72 31.4555 63.32C31.8875 63.824 32.4755 64.436 33.2195 65.156C33.9635 65.852 34.7555 66.524 35.5955 67.172C36.4355 67.82 37.1915 68.312 37.8635 68.648C38.0075 68.768 38.0435 68.996 37.9715 69.332C37.9235 69.692 37.8275 70.028 37.6835 70.34C37.5635 70.652 37.4555 70.82 37.3595 70.844ZM28.2875 56.732C28.8395 56.684 29.4395 56.54 30.0875 56.3C30.7595 56.036 31.4675 55.748 32.2115 55.436C32.9075 55.1 33.5915 54.74 34.2635 54.356C34.9595 53.948 35.5835 53.504 36.1355 53.024C36.7115 52.544 37.1555 52.028 37.4675 51.476C37.8035 50.924 37.9475 50.336 37.8995 49.712C37.8995 49.4 37.8035 49.052 37.6115 48.668C37.4195 48.284 37.1675 47.936 36.8555 47.624C36.5675 47.312 36.2675 47.108 35.9555 47.012C34.9955 46.772 34.2635 46.628 33.7595 46.58C33.2555 46.532 32.8835 46.604 32.6435 46.796C32.4275 46.988 32.2595 47.324 32.1395 47.804C32.1395 47.876 32.0435 48.104 31.8515 48.488C31.6595 48.872 31.4195 49.364 31.1315 49.964C30.8675 50.54 30.6035 51.164 30.3395 51.836C29.6435 53.252 29.1275 54.296 28.7915 54.968C28.4795 55.616 28.2875 56.048 28.2155 56.264C28.1675 56.48 28.1915 56.636 28.2875 56.732ZM47.0859 67.28C46.3659 67.688 45.5979 67.928 44.7819 68C43.9899 68.048 43.2459 67.94 42.5499 67.676C41.8539 67.388 41.2899 66.968 40.8579 66.416C40.6179 66.104 40.3899 65.612 40.1739 64.94C39.9579 64.244 39.9219 63.308 40.0659 62.132C40.2099 61.028 40.5459 59.912 41.0739 58.784C41.6259 57.656 42.2979 56.66 43.0899 55.796C43.8819 54.932 44.7459 54.344 45.6819 54.032C46.0179 53.912 46.3539 53.828 46.6899 53.78C47.0499 53.708 47.5179 53.696 48.0939 53.744C48.6459 53.816 49.1379 53.96 49.5699 54.176C50.0019 54.368 50.3139 54.584 50.5059 54.824C50.8899 55.208 51.1419 55.58 51.2619 55.94C51.3819 56.3 51.4299 56.648 51.4059 56.984C51.2859 57.752 50.9379 58.58 50.3619 59.468C49.8099 60.356 49.0299 61.016 48.0219 61.448C47.6139 61.616 47.1339 61.724 46.5819 61.772C46.0299 61.82 45.2739 61.748 44.3139 61.556C43.7379 61.436 43.3539 61.496 43.1619 61.736C42.9939 61.976 42.9219 62.444 42.9459 63.14C42.9939 63.572 43.0899 63.956 43.2339 64.292C43.4019 64.604 43.7019 64.82 44.1339 64.94C44.6859 65.036 45.0819 65.048 45.3219 64.976C45.5619 64.88 45.8619 64.748 46.2219 64.58C46.4139 64.46 46.5939 64.328 46.7619 64.184C46.9539 64.04 47.1339 63.896 47.3019 63.752C47.4939 63.608 47.6499 63.5 47.7699 63.428C47.8899 63.332 48.0099 63.272 48.1299 63.248C48.2499 63.224 48.3699 63.212 48.4899 63.212C48.7539 63.236 49.0059 63.38 49.2459 63.644C49.4859 63.908 49.6419 64.16 49.7139 64.4C49.7139 64.592 49.5939 64.868 49.3539 65.228C49.1139 65.564 48.7899 65.924 48.3819 66.308C47.9979 66.668 47.5659 66.992 47.0859 67.28ZM46.6179 59.252C46.7859 59.18 47.0259 59.012 47.3379 58.748C47.6739 58.484 47.9739 58.208 48.2379 57.92C48.5019 57.608 48.6339 57.368 48.6339 57.2C48.6339 56.936 48.4539 56.708 48.0939 56.516C47.7579 56.324 47.3139 56.288 46.7619 56.408C46.5699 56.456 46.3419 56.588 46.0779 56.804C45.8139 57.02 45.5499 57.272 45.2859 57.56C45.0219 57.824 44.7939 58.088 44.6019 58.352C44.4099 58.592 44.2779 58.784 44.2059 58.928C44.3019 59.048 44.4939 59.144 44.7819 59.216C45.0699 59.288 45.3819 59.324 45.7179 59.324C46.0779 59.324 46.3779 59.3 46.6179 59.252ZM54.0694 68.216C53.2534 67.88 52.6534 67.532 52.2694 67.172C51.9094 66.788 51.7654 66.452 51.8374 66.164C51.8854 66.02 51.9694 65.888 52.0894 65.768C52.2094 65.648 52.4734 65.6 52.8814 65.624C53.3134 65.624 53.9734 65.732 54.8614 65.948C55.1254 65.948 55.3894 65.936 55.6534 65.912C55.9174 65.888 56.1574 65.852 56.3734 65.804C56.6134 65.756 56.8054 65.696 56.9494 65.624C57.0694 65.576 57.1054 65.516 57.0574 65.444C57.0094 65.348 56.9254 65.252 56.8054 65.156C56.7094 65.036 56.6014 64.964 56.4814 64.94C56.3614 64.892 56.2534 64.868 56.1574 64.868C56.1094 64.748 56.0014 64.628 55.8334 64.508C55.6894 64.388 55.5094 64.256 55.2934 64.112C54.7654 63.68 54.2854 63.296 53.8534 62.96C53.4214 62.624 53.2534 62.372 53.3494 62.204C53.3494 62.108 53.3494 62.06 53.3494 62.06C53.3494 62.036 53.3494 62.024 53.3494 62.024C53.1814 62.024 53.0254 61.796 52.8814 61.34C52.7374 60.86 52.6654 60.428 52.6654 60.044C52.6654 59.564 52.7614 59.084 52.9534 58.604C53.1694 58.124 53.4334 57.668 53.7454 57.236C54.0814 56.804 54.4174 56.42 54.7534 56.084C55.2094 55.652 55.6894 55.232 56.1934 54.824C56.7214 54.392 57.2854 54.008 57.8854 53.672C58.5094 53.336 59.1934 53.072 59.9374 52.88C60.2734 52.808 60.6574 52.772 61.0894 52.772C61.5214 52.772 61.8334 52.832 62.0254 52.952C62.2174 52.832 62.4574 52.868 62.7454 53.06C63.0334 53.228 63.3214 53.468 63.6094 53.78C63.8974 54.092 64.1134 54.404 64.2574 54.716C64.2574 55.004 64.2454 55.364 64.2214 55.796C64.2214 56.204 64.1974 56.564 64.1494 56.876C64.1014 57.188 63.9934 57.344 63.8254 57.344C63.8254 57.344 63.7894 57.356 63.7174 57.38C63.6694 57.38 63.6454 57.44 63.6454 57.56C63.6454 57.8 63.4654 58.076 63.1054 58.388C62.6494 58.7 62.2174 58.952 61.8094 59.144C61.4014 59.336 61.0894 59.348 60.8734 59.18C60.7294 59.084 60.5974 58.988 60.4774 58.892C60.3574 58.796 60.2494 58.676 60.1534 58.532C60.1534 58.532 60.1174 58.484 60.0454 58.388C59.9974 58.268 59.9734 58.16 59.9734 58.064C59.9734 57.968 60.0094 57.884 60.0814 57.812C60.1534 57.716 60.1894 57.668 60.1894 57.668C60.5254 57.356 60.7774 57.068 60.9454 56.804C61.1374 56.54 61.2694 56.312 61.3414 56.12C61.4134 55.904 61.4494 55.736 61.4494 55.616C61.4494 55.472 61.4134 55.388 61.3414 55.364C61.2934 55.316 61.1734 55.292 60.9814 55.292C60.8614 55.292 60.5974 55.388 60.1894 55.58C59.8054 55.772 59.3974 56.012 58.9654 56.3C58.5334 56.564 58.1974 56.804 57.9574 57.02C57.8614 57.188 57.7894 57.296 57.7414 57.344C57.7174 57.392 57.6574 57.416 57.5614 57.416C57.5614 57.32 57.5014 57.332 57.3814 57.452C57.2614 57.572 57.1174 57.74 56.9494 57.956C56.7814 58.172 56.6134 58.4 56.4454 58.64C56.2774 58.88 56.1454 59.072 56.0494 59.216C56.0254 59.432 55.9654 59.636 55.8694 59.828C55.7974 59.996 55.7734 60.176 55.7974 60.368C55.8214 60.608 55.9414 60.836 56.1574 61.052C56.3734 61.268 56.6854 61.544 57.0934 61.88C57.9334 62.504 58.5574 62.996 58.9654 63.356C59.3974 63.716 59.6974 64.004 59.8654 64.22C60.0334 64.436 60.1414 64.652 60.1894 64.868C60.5974 65.612 60.6454 66.26 60.3334 66.812C60.0214 67.34 59.5414 67.748 58.8934 68.036C58.6534 68.156 58.2334 68.264 57.6334 68.36C57.0334 68.48 56.3974 68.528 55.7254 68.504C55.0774 68.504 54.5254 68.408 54.0694 68.216ZM69.4273 68.216C69.0913 68.12 68.7553 67.952 68.4193 67.712C68.0833 67.472 67.7353 67.196 67.3753 66.884C67.0873 66.5 66.8833 66.152 66.7633 65.84C66.6433 65.504 66.5713 65.12 66.5473 64.688C66.5473 64.232 66.5473 63.656 66.5473 62.96C66.5473 62.672 66.5953 62.264 66.6913 61.736C66.8113 61.208 66.9313 60.656 67.0513 60.08C67.1953 59.504 67.3273 59 67.4473 58.568C67.5673 58.112 67.6393 57.812 67.6633 57.668C67.7353 57.356 67.6153 57.176 67.3033 57.128C66.9913 57.08 66.6433 57.068 66.2593 57.092C65.8993 57.092 65.6593 57.056 65.5393 56.984C65.4433 56.96 65.3953 56.84 65.3953 56.624C65.3953 56.384 65.3953 56.264 65.3953 56.264C65.3953 56.168 65.3473 56.108 65.2513 56.084C65.1553 56.036 65.0713 55.952 64.9993 55.832C64.9513 55.736 65.0113 55.556 65.1793 55.292C65.3473 55.028 65.5633 54.872 65.8273 54.824C66.0433 54.776 66.3673 54.74 66.7993 54.716C67.2313 54.668 67.6633 54.584 68.0953 54.464C68.5513 54.32 68.8993 54.104 69.1393 53.816C69.3553 53.288 69.5953 52.724 69.8593 52.124C70.1233 51.5 70.3753 50.96 70.6153 50.504C70.8553 50.024 71.0233 49.724 71.1193 49.604C71.5273 49.388 71.9473 49.304 72.3793 49.352C72.8113 49.376 73.1473 49.58 73.3873 49.964C73.5073 50.132 73.6033 50.252 73.6753 50.324C73.7713 50.396 73.8073 50.504 73.7833 50.648C73.7833 50.792 73.6873 51.056 73.4953 51.44C73.3273 51.8 73.0393 52.364 72.6313 53.132C72.5113 53.372 72.4033 53.588 72.3073 53.78C72.2113 53.948 72.1633 54.032 72.1633 54.032C72.2593 54.056 72.4033 54.068 72.5953 54.068C72.7873 54.068 73.0273 54.056 73.3153 54.032C73.5793 53.984 73.8673 53.948 74.1793 53.924C74.4913 53.876 74.7673 53.876 75.0073 53.924C75.5593 53.924 75.9673 54.08 76.2313 54.392C76.4953 54.704 76.6393 55.1 76.6633 55.58C76.7113 55.844 76.6153 56.072 76.3753 56.264C76.1353 56.456 75.6913 56.552 75.0433 56.552C74.8273 56.552 74.5153 56.564 74.1073 56.588C73.6993 56.612 73.2793 56.636 72.8473 56.66C72.4153 56.684 72.0433 56.72 71.7313 56.768C71.4433 56.792 71.2993 56.828 71.2993 56.876C71.2273 56.924 71.1073 57.116 70.9393 57.452C70.7953 57.764 70.6393 58.148 70.4713 58.604C70.3273 59.06 70.1953 59.492 70.0753 59.9C69.9073 60.716 69.7873 61.508 69.7153 62.276C69.6433 63.044 69.6313 63.716 69.6793 64.292C69.7513 64.844 69.8953 65.24 70.1113 65.48C70.3273 65.696 70.6513 65.696 71.0833 65.48C71.5393 65.24 71.9593 64.964 72.3433 64.652C72.7753 64.292 73.1473 64.184 73.4593 64.328C73.7713 64.448 73.9633 64.712 74.0353 65.12C74.1313 65.504 74.0233 65.924 73.7113 66.38C73.4233 66.836 73.0153 67.22 72.4873 67.532C71.9593 67.844 71.4193 68.06 70.8673 68.18C70.3153 68.324 69.8353 68.336 69.4273 68.216ZM79.8693 67.496C79.6773 67.544 79.4253 67.568 79.1133 67.568C78.8013 67.544 78.5253 67.508 78.2853 67.46C78.0693 67.388 77.9613 67.316 77.9613 67.244C77.9613 67.124 77.9013 67.064 77.7813 67.064C77.7813 67.064 77.6493 66.968 77.3853 66.776C77.1213 66.56 76.8813 66.404 76.6653 66.308C76.4493 65.972 76.3053 65.588 76.2333 65.156C76.1853 64.7 76.3293 63.908 76.6653 62.78C76.6893 62.012 76.9053 61.208 77.3133 60.368C77.7213 59.504 78.2373 58.664 78.8613 57.848C79.4853 57.032 80.1333 56.312 80.8053 55.688C81.4773 55.04 82.0773 54.56 82.6053 54.248C82.9413 53.912 83.3853 53.732 83.9373 53.708C84.5133 53.684 85.0173 53.792 85.4493 54.032C85.6893 54.152 85.9533 54.392 86.2413 54.752C86.5293 55.112 86.8053 55.496 87.0693 55.904C87.3333 56.288 87.5373 56.636 87.6813 56.948C87.7533 57.212 87.8133 57.452 87.8613 57.668C87.9333 57.86 87.9813 58.1 88.0053 58.388C88.0293 58.676 88.0053 59.108 87.9333 59.684C87.8133 60.116 87.7053 60.56 87.6093 61.016C87.5373 61.448 87.5013 61.892 87.5013 62.348C87.4533 62.804 87.5013 63.128 87.6453 63.32C87.8133 63.512 88.0533 63.524 88.3653 63.356C88.6533 63.212 88.9533 63.2 89.2653 63.32C89.5773 63.416 89.7933 63.608 89.9133 63.896C90.0573 64.16 90.0213 64.508 89.8053 64.94C89.6613 65.252 89.4333 65.552 89.1213 65.84C88.8093 66.128 88.4613 66.368 88.0773 66.56C87.6933 66.728 87.3213 66.812 86.9613 66.812C86.6973 66.812 86.4333 66.716 86.1693 66.524C85.9053 66.308 85.6653 66.02 85.4493 65.66C85.2333 65.3 85.0533 64.904 84.9093 64.472L84.6933 63.644L83.3973 64.832C83.0853 65.168 82.7733 65.48 82.4613 65.768C82.1733 66.032 81.9933 66.224 81.9213 66.344C81.8013 66.56 81.5613 66.752 81.2013 66.92C80.8653 67.088 80.4213 67.28 79.8693 67.496ZM80.8413 64.04C81.2493 63.8 81.5973 63.512 81.8853 63.176C82.1973 62.84 82.4973 62.468 82.7853 62.06C83.0733 61.628 83.3853 61.172 83.7213 60.692C84.1293 60.14 84.4173 59.696 84.5853 59.36C84.7773 59.024 84.9213 58.664 85.0173 58.28C84.9213 58.016 84.7893 57.74 84.6213 57.452C84.4533 57.14 84.2853 56.972 84.1173 56.948C83.7813 56.948 83.3733 57.152 82.8933 57.56C82.4373 57.968 81.9333 58.556 81.3813 59.324C81.2853 59.444 81.1653 59.636 81.0213 59.9C80.8773 60.164 80.7333 60.416 80.5893 60.656C80.4693 60.872 80.3853 61.016 80.3373 61.088C80.2653 61.184 80.1573 61.412 80.0133 61.772C79.8933 62.108 79.7853 62.456 79.6893 62.816C79.5933 63.152 79.5453 63.392 79.5453 63.536C79.5453 63.68 79.5573 63.836 79.5813 64.004C79.6293 64.172 79.7493 64.28 79.9413 64.328C80.1333 64.376 80.4333 64.28 80.8413 64.04ZM93.9509 66.74C93.4949 66.332 93.0989 65.912 92.7629 65.48C92.4269 65.024 92.1989 64.328 92.0789 63.392C92.0309 62.96 92.0789 62.36 92.2229 61.592C92.3669 60.824 92.5829 60.02 92.8709 59.18C93.1589 58.316 93.4709 57.524 93.8069 56.804C94.1429 56.084 94.4789 55.556 94.8149 55.22C95.1029 54.86 95.4629 54.572 95.8949 54.356C96.3509 54.14 96.8189 54.14 97.2989 54.356C97.5629 54.668 97.6949 55.1 97.6949 55.652C97.7189 56.18 97.5869 56.672 97.2989 57.128C96.8189 57.776 96.3989 58.592 96.0389 59.576C95.7029 60.536 95.4749 61.4 95.3549 62.168C95.1869 62.72 95.1149 63.152 95.1389 63.464C95.1629 63.752 95.3309 63.932 95.6429 64.004C96.0989 64.124 96.5669 63.992 97.0469 63.608C97.5509 63.224 98.0309 62.66 98.4869 61.916C98.9669 61.172 99.3869 60.32 99.7469 59.36C99.8909 59.024 99.9989 58.628 100.071 58.172C100.167 57.716 100.263 57.38 100.359 57.164C100.479 56.684 100.683 56.312 100.971 56.048C101.283 55.76 101.607 55.58 101.943 55.508C102.279 55.436 102.531 55.472 102.699 55.616C102.915 55.712 103.143 55.868 103.383 56.084C103.623 56.3 103.719 56.684 103.671 57.236C103.671 58.124 103.479 58.88 103.095 59.504C102.711 60.128 102.387 60.788 102.123 61.484C101.907 61.988 101.559 62.576 101.079 63.248C100.599 63.92 100.083 64.532 99.5309 65.084C99.0029 65.636 98.5109 66.008 98.0549 66.2C97.3829 66.632 96.6989 66.896 96.0029 66.992C95.3069 67.064 94.6229 66.98 93.9509 66.74ZM105.835 67.46C105.667 67.46 105.439 67.34 105.151 67.1C104.887 66.86 104.731 66.644 104.683 66.452C104.611 66.26 104.611 65.984 104.683 65.624C104.779 65.24 104.911 64.796 105.079 64.292C105.271 63.5 105.403 62.924 105.475 62.564C105.547 62.204 105.619 61.892 105.691 61.628C105.763 61.364 105.859 60.98 105.979 60.476C106.123 60.164 106.231 59.864 106.303 59.576C106.399 59.264 106.495 58.952 106.591 58.64C106.711 58.328 106.843 58.016 106.987 57.704C107.155 57.08 107.359 56.492 107.599 55.94C107.863 55.364 108.115 54.884 108.355 54.5C108.403 54.428 108.511 54.296 108.679 54.104C108.847 53.912 108.979 53.816 109.075 53.816C109.267 53.624 109.531 53.564 109.867 53.636C110.203 53.684 110.491 53.804 110.731 53.996C111.019 54.308 111.175 54.68 111.199 55.112C111.247 55.52 111.079 56.096 110.695 56.84C110.407 57.584 110.131 58.172 109.867 58.604C109.627 59.012 109.387 59.492 109.147 60.044C109.411 59.66 109.735 59.264 110.119 58.856C110.503 58.448 110.803 58.124 111.019 57.884C111.331 57.548 111.619 57.284 111.883 57.092C112.171 56.876 112.555 56.612 113.035 56.3C113.443 56.012 113.851 55.748 114.259 55.508C114.691 55.268 115.207 55.196 115.807 55.292C116.047 55.268 116.299 55.388 116.563 55.652C116.851 55.916 117.067 56.264 117.211 56.696C117.379 57.104 117.379 57.548 117.211 58.028C116.659 57.908 116.167 57.932 115.735 58.1C115.303 58.244 114.931 58.424 114.619 58.64C114.331 58.856 114.103 59.024 113.935 59.144C113.695 59.288 113.419 59.48 113.107 59.72C112.795 59.936 112.459 60.188 112.099 60.476C111.739 60.74 111.355 61.04 110.947 61.376C110.371 61.856 109.939 62.276 109.651 62.636C109.363 62.996 109.135 63.38 108.967 63.788C108.823 64.148 108.643 64.58 108.427 65.084C108.211 65.588 108.007 66.044 107.815 66.452C107.623 66.836 107.467 67.076 107.347 67.172C107.227 67.412 106.975 67.544 106.591 67.568C106.231 67.592 105.979 67.556 105.835 67.46ZM118.592 67.244C118.496 67.052 118.28 66.86 117.944 66.668C117.632 66.476 117.476 66.332 117.476 66.236C117.476 66.14 117.416 65.996 117.296 65.804C117.2 65.588 117.104 65.432 117.008 65.336C116.888 65.192 116.924 64.844 117.116 64.292C117.308 63.716 117.596 63.02 117.98 62.204C118.364 61.388 118.784 60.56 119.24 59.72C119.432 59.528 119.624 59.276 119.816 58.964C120.008 58.652 120.152 58.448 120.248 58.352C120.248 58.256 120.284 58.172 120.356 58.1C120.428 58.004 120.512 57.956 120.608 57.956L120.896 57.38C120.944 57.284 121.088 57.092 121.328 56.804C121.592 56.516 121.904 56.204 122.264 55.868C122.624 55.508 122.984 55.172 123.344 54.86C123.728 54.548 124.04 54.32 124.28 54.176C124.784 53.84 125.3 53.684 125.828 53.708C126.38 53.732 126.848 53.9 127.232 54.212C127.304 54.284 127.46 54.428 127.7 54.644C127.964 54.86 128.252 55.1 128.564 55.364C128.9 55.628 129.188 55.868 129.428 56.084L130.76 57.272L130.148 59.072C129.836 60.032 129.752 60.872 129.896 61.592C130.04 62.312 130.268 62.936 130.58 63.464C130.7 63.728 130.856 63.932 131.048 64.076C131.264 64.22 131.54 64.316 131.876 64.364C132.068 64.388 132.248 64.46 132.416 64.58C132.584 64.7 132.668 64.892 132.668 65.156C132.668 65.732 132.56 66.152 132.344 66.416C132.152 66.656 131.936 66.8 131.696 66.848C130.904 66.944 130.148 66.86 129.428 66.596C128.708 66.332 128.06 65.648 127.484 64.544C127.388 64.4 127.256 64.136 127.088 63.752C126.944 63.344 126.86 63.08 126.836 62.96C126.74 63.08 126.608 63.236 126.44 63.428C126.296 63.596 126.152 63.752 126.008 63.896C124.304 65.624 122.84 66.752 121.616 67.28C120.416 67.784 119.408 67.772 118.592 67.244ZM120.572 64.256C120.74 64.28 121.004 64.196 121.364 64.004C121.724 63.788 122.204 63.44 122.804 62.96C123.62 62.264 124.292 61.688 124.82 61.232C125.348 60.776 125.864 60.188 126.368 59.468L127.16 58.172C126.92 57.62 126.704 57.26 126.512 57.092C126.32 56.924 126.128 56.84 125.936 56.84C125.624 56.84 125.252 57.044 124.82 57.452C124.388 57.836 123.896 58.412 123.344 59.18C122.816 59.924 122.216 60.86 121.544 61.988C121.232 62.516 120.992 63.032 120.824 63.536C120.656 64.016 120.572 64.256 120.572 64.256ZM146.142 67.136C145.614 67.088 145.17 66.98 144.81 66.812C144.474 66.62 144.198 66.248 143.982 65.696C143.886 65.312 143.838 64.916 143.838 64.508C143.862 64.076 143.898 63.668 143.946 63.284C143.994 62.876 144.018 62.528 144.018 62.24C144.018 62.192 144.018 62.096 144.018 61.952C144.018 61.808 144.018 61.676 144.018 61.556C143.97 61.196 143.874 60.98 143.73 60.908C143.61 60.812 143.394 60.824 143.082 60.944C142.578 61.184 142.026 61.508 141.426 61.916C140.85 62.3 140.238 62.756 139.59 63.284C138.966 63.788 138.318 64.328 137.646 64.904C137.118 65.48 136.722 65.948 136.458 66.308C136.218 66.668 135.966 66.848 135.702 66.848C135.51 66.944 135.306 66.92 135.09 66.776C134.874 66.632 134.646 66.464 134.406 66.272C134.238 66.08 134.034 65.84 133.794 65.552C133.578 65.24 133.446 65.036 133.398 64.94C133.398 64.556 133.422 64.208 133.47 63.896C133.542 63.584 133.638 63.26 133.758 62.924C133.902 62.588 134.07 62.204 134.262 61.772C134.358 61.604 134.442 61.436 134.514 61.268C134.61 61.076 134.718 60.872 134.838 60.656C134.934 60.32 135.066 59.936 135.234 59.504C135.426 59.072 135.606 58.664 135.774 58.28C136.038 57.656 136.242 57.116 136.386 56.66C136.53 56.204 136.65 55.712 136.746 55.184C136.722 55.136 136.734 55.064 136.782 54.968C136.83 54.872 136.902 54.812 136.998 54.788H137.034H137.07C137.238 54.668 137.55 54.656 138.006 54.752C138.486 54.824 138.846 54.956 139.086 55.148C139.59 55.58 139.83 56.144 139.806 56.84C139.782 57.536 139.422 58.448 138.726 59.576C138.558 59.96 138.378 60.32 138.186 60.656C138.018 60.968 137.934 61.184 137.934 61.304C137.934 61.304 138.03 61.232 138.222 61.088C138.414 60.944 138.642 60.776 138.906 60.584C139.17 60.368 139.398 60.2 139.59 60.08C139.71 59.96 139.974 59.744 140.382 59.432C140.79 59.096 141.234 58.748 141.714 58.388C142.194 58.028 142.578 57.752 142.866 57.56C143.13 57.368 143.466 57.176 143.874 56.984C144.282 56.768 144.534 56.66 144.63 56.66C144.87 56.66 145.158 56.744 145.494 56.912C145.854 57.08 146.178 57.284 146.466 57.524C146.778 57.74 146.958 57.944 147.006 58.136C147.006 58.232 146.994 58.364 146.97 58.532C146.946 58.676 146.934 58.808 146.934 58.928C146.91 59.312 146.898 59.78 146.898 60.332C146.922 60.86 146.934 61.4 146.934 61.952C146.934 62.48 146.886 62.96 146.79 63.392C146.79 63.392 146.802 63.416 146.826 63.464C146.85 63.488 146.874 63.536 146.898 63.608C146.874 63.632 146.862 63.68 146.862 63.752C146.886 63.8 146.898 63.824 146.898 63.824C146.946 63.992 146.994 64.16 147.042 64.328C147.114 64.496 147.198 64.688 147.294 64.904C147.39 65.096 147.498 65.348 147.618 65.66C147.594 65.972 147.414 66.284 147.078 66.596C146.766 66.884 146.454 67.064 146.142 67.136ZM154.998 68.216C154.662 68.12 154.326 67.952 153.99 67.712C153.654 67.472 153.306 67.196 152.946 66.884C152.658 66.5 152.454 66.152 152.334 65.84C152.214 65.504 152.142 65.12 152.118 64.688C152.118 64.232 152.118 63.656 152.118 62.96C152.118 62.672 152.166 62.264 152.262 61.736C152.382 61.208 152.502 60.656 152.622 60.08C152.766 59.504 152.898 59 153.018 58.568C153.138 58.112 153.21 57.812 153.234 57.668C153.306 57.356 153.186 57.176 152.874 57.128C152.562 57.08 152.214 57.068 151.83 57.092C151.47 57.092 151.23 57.056 151.11 56.984C151.014 56.96 150.966 56.84 150.966 56.624C150.966 56.384 150.966 56.264 150.966 56.264C150.966 56.168 150.918 56.108 150.822 56.084C150.726 56.036 150.642 55.952 150.57 55.832C150.522 55.736 150.582 55.556 150.75 55.292C150.918 55.028 151.134 54.872 151.398 54.824C151.614 54.776 151.938 54.74 152.37 54.716C152.802 54.668 153.234 54.584 153.666 54.464C154.122 54.32 154.47 54.104 154.71 53.816C154.926 53.288 155.166 52.724 155.43 52.124C155.694 51.5 155.946 50.96 156.186 50.504C156.426 50.024 156.594 49.724 156.69 49.604C157.098 49.388 157.518 49.304 157.95 49.352C158.382 49.376 158.718 49.58 158.958 49.964C159.078 50.132 159.174 50.252 159.246 50.324C159.342 50.396 159.378 50.504 159.354 50.648C159.354 50.792 159.258 51.056 159.066 51.44C158.898 51.8 158.61 52.364 158.202 53.132C158.082 53.372 157.974 53.588 157.878 53.78C157.782 53.948 157.734 54.032 157.734 54.032C157.83 54.056 157.974 54.068 158.166 54.068C158.358 54.068 158.598 54.056 158.886 54.032C159.15 53.984 159.438 53.948 159.75 53.924C160.062 53.876 160.338 53.876 160.578 53.924C161.13 53.924 161.538 54.08 161.802 54.392C162.066 54.704 162.21 55.1 162.234 55.58C162.282 55.844 162.186 56.072 161.946 56.264C161.706 56.456 161.262 56.552 160.614 56.552C160.398 56.552 160.086 56.564 159.678 56.588C159.27 56.612 158.85 56.636 158.418 56.66C157.986 56.684 157.614 56.72 157.302 56.768C157.014 56.792 156.87 56.828 156.87 56.876C156.798 56.924 156.678 57.116 156.51 57.452C156.366 57.764 156.21 58.148 156.042 58.604C155.898 59.06 155.766 59.492 155.646 59.9C155.478 60.716 155.358 61.508 155.286 62.276C155.214 63.044 155.202 63.716 155.25 64.292C155.322 64.844 155.466 65.24 155.682 65.48C155.898 65.696 156.222 65.696 156.654 65.48C157.11 65.24 157.53 64.964 157.914 64.652C158.346 64.292 158.718 64.184 159.03 64.328C159.342 64.448 159.534 64.712 159.606 65.12C159.702 65.504 159.594 65.924 159.282 66.38C158.994 66.836 158.586 67.22 158.058 67.532C157.53 67.844 156.99 68.06 156.438 68.18C155.886 68.324 155.406 68.336 154.998 68.216Z" fill="#FEAC01"/>
<path d="M16.884 40L8.388 28.84V40H2.232V14.728H8.388V25.816L16.812 14.728H24.048L14.256 27.112L24.408 40H16.884ZM26.1096 29.92C26.1096 27.856 26.4936 26.044 27.2616 24.484C28.0536 22.924 29.1216 21.724 30.4656 20.884C31.8096 20.044 33.3096 19.624 34.9656 19.624C36.3816 19.624 37.6176 19.912 38.6736 20.488C39.7536 21.064 40.5816 21.82 41.1576 22.756V19.912H47.3136V40H41.1576V37.156C40.5576 38.092 39.7176 38.848 38.6376 39.424C37.5816 40 36.3456 40.288 34.9296 40.288C33.2976 40.288 31.8096 39.868 30.4656 39.028C29.1216 38.164 28.0536 36.952 27.2616 35.392C26.4936 33.808 26.1096 31.984 26.1096 29.92ZM41.1576 29.956C41.1576 28.42 40.7256 27.208 39.8616 26.32C39.0216 25.432 37.9896 24.988 36.7656 24.988C35.5416 24.988 34.4976 25.432 33.6336 26.32C32.7936 27.184 32.3736 28.384 32.3736 29.92C32.3736 31.456 32.7936 32.68 33.6336 33.592C34.4976 34.48 35.5416 34.924 36.7656 34.924C37.9896 34.924 39.0216 34.48 39.8616 33.592C40.7256 32.704 41.1576 31.492 41.1576 29.956ZM64.1152 19.696C66.4192 19.696 68.2672 20.464 69.6592 22C71.0512 23.512 71.7472 25.6 71.7472 28.264V40H65.6272V29.092C65.6272 27.748 65.2792 26.704 64.5832 25.96C63.8872 25.216 62.9512 24.844 61.7752 24.844C60.5992 24.844 59.6632 25.216 58.9672 25.96C58.2712 26.704 57.9232 27.748 57.9232 29.092V40H51.7672V13.36H57.9232V22.612C58.5472 21.724 59.3992 21.016 60.4792 20.488C61.5592 19.96 62.7712 19.696 64.1152 19.696ZM74.801 29.92C74.801 27.856 75.185 26.044 75.953 24.484C76.745 22.924 77.813 21.724 79.157 20.884C80.501 20.044 82.001 19.624 83.657 19.624C85.073 19.624 86.309 19.912 87.365 20.488C88.445 21.064 89.273 21.82 89.849 22.756V19.912H96.005V40H89.849V37.156C89.249 38.092 88.409 38.848 87.329 39.424C86.273 40 85.037 40.288 83.621 40.288C81.989 40.288 80.501 39.868 79.157 39.028C77.813 38.164 76.745 36.952 75.953 35.392C75.185 33.808 74.801 31.984 74.801 29.92ZM89.849 29.956C89.849 28.42 89.417 27.208 88.553 26.32C87.713 25.432 86.681 24.988 85.457 24.988C84.233 24.988 83.189 25.432 82.325 26.32C81.485 27.184 81.065 28.384 81.065 29.92C81.065 31.456 81.485 32.68 82.325 33.592C83.189 34.48 84.233 34.924 85.457 34.924C86.681 34.924 87.713 34.48 88.553 33.592C89.417 32.704 89.849 31.492 89.849 29.956ZM120.979 19.912L108.379 49.54H101.755L106.363 39.316L98.1906 19.912H105.067L109.711 32.476L114.319 19.912H120.979ZM121.981 29.92C121.981 27.856 122.365 26.044 123.133 24.484C123.925 22.924 124.993 21.724 126.337 20.884C127.681 20.044 129.181 19.624 130.837 19.624C132.253 19.624 133.489 19.912 134.545 20.488C135.625 21.064 136.453 21.82 137.029 22.756V19.912H143.185V40H137.029V37.156C136.429 38.092 135.589 38.848 134.509 39.424C133.453 40 132.217 40.288 130.801 40.288C129.169 40.288 127.681 39.868 126.337 39.028C124.993 38.164 123.925 36.952 123.133 35.392C122.365 33.808 121.981 31.984 121.981 29.92ZM137.029 29.956C137.029 28.42 136.597 27.208 135.733 26.32C134.893 25.432 133.861 24.988 132.637 24.988C131.413 24.988 130.369 25.432 129.505 26.32C128.665 27.184 128.245 28.384 128.245 29.92C128.245 31.456 128.665 32.68 129.505 33.592C130.369 34.48 131.413 34.924 132.637 34.924C133.861 34.924 134.893 34.48 135.733 33.592C136.597 32.704 137.029 31.492 137.029 29.956ZM155.27 19.624C156.686 19.624 157.922 19.912 158.978 20.488C160.058 21.064 160.886 21.82 161.462 22.756V19.912H167.618V39.964C167.618 41.812 167.246 43.48 166.502 44.968C165.782 46.48 164.666 47.68 163.154 48.568C161.666 49.456 159.806 49.9 157.574 49.9C154.598 49.9 152.186 49.192 150.338 47.776C148.49 46.384 147.434 44.488 147.17 42.088H153.254C153.446 42.856 153.902 43.456 154.622 43.888C155.342 44.344 156.23 44.572 157.286 44.572C158.558 44.572 159.566 44.2 160.31 43.456C161.078 42.736 161.462 41.572 161.462 39.964V37.12C160.862 38.056 160.034 38.824 158.978 39.424C157.922 40 156.686 40.288 155.27 40.288C153.614 40.288 152.114 39.868 150.77 39.028C149.426 38.164 148.358 36.952 147.566 35.392C146.798 33.808 146.414 31.984 146.414 29.92C146.414 27.856 146.798 26.044 147.566 24.484C148.358 22.924 149.426 21.724 150.77 20.884C152.114 20.044 153.614 19.624 155.27 19.624ZM161.462 29.956C161.462 28.42 161.03 27.208 160.166 26.32C159.326 25.432 158.294 24.988 157.07 24.988C155.846 24.988 154.802 25.432 153.938 26.32C153.098 27.184 152.678 28.384 152.678 29.92C152.678 31.456 153.098 32.68 153.938 33.592C154.802 34.48 155.846 34.924 157.07 34.924C158.294 34.924 159.326 34.48 160.166 33.592C161.03 32.704 161.462 31.492 161.462 29.956Z" fill="#FEAC01"/>
</svg>
