<svg width="24" height="19" viewBox="0 0 24 19" fill="none" xmlns="http://www.w3.org/2000/svg">
<rect width="24" height="19" fill="#A60221"/>
<path d="M5.04367 14L3.34367 11.66V14H1.63367V6.6H3.34367V10.69L5.03367 8.42H7.14367L4.82367 11.22L7.16367 14H5.04367ZM7.47531 11.21C7.47531 10.63 7.59198 10.1233 7.82531 9.69C8.06531 9.25667 8.39531 8.92333 8.81531 8.69C9.24198 8.45667 9.72865 8.34 10.2753 8.34C10.9753 8.34 11.5586 8.52333 12.0253 8.89C12.4986 9.25667 12.8086 9.77333 12.9553 10.44H11.1353C10.982 10.0133 10.6853 9.8 10.2453 9.8C9.93198 9.8 9.68198 9.92333 9.49531 10.17C9.30865 10.41 9.21531 10.7567 9.21531 11.21C9.21531 11.6633 9.30865 12.0133 9.49531 12.26C9.68198 12.5 9.93198 12.62 10.2453 12.62C10.6853 12.62 10.982 12.4067 11.1353 11.98H12.9553C12.8086 12.6333 12.4986 13.1467 12.0253 13.52C11.552 13.8933 10.9686 14.08 10.2753 14.08C9.72865 14.08 9.24198 13.9633 8.81531 13.73C8.39531 13.4967 8.06531 13.1633 7.82531 12.73C7.59198 12.2967 7.47531 11.79 7.47531 11.21ZM13.53 11.2C13.53 10.6267 13.6367 10.1233 13.85 9.69C14.07 9.25667 14.3667 8.92333 14.74 8.69C15.1133 8.45667 15.53 8.34 15.99 8.34C16.3833 8.34 16.7267 8.42 17.02 8.58C17.32 8.74 17.55 8.95 17.71 9.21V8.42H19.42V14H17.71V13.21C17.5433 13.47 17.31 13.68 17.01 13.84C16.7167 14 16.3733 14.08 15.98 14.08C15.5267 14.08 15.1133 13.9633 14.74 13.73C14.3667 13.49 14.07 13.1533 13.85 12.72C13.6367 12.28 13.53 11.7733 13.53 11.2ZM17.71 11.21C17.71 10.7833 17.59 10.4467 17.35 10.2C17.1167 9.95333 16.83 9.83 16.49 9.83C16.15 9.83 15.86 9.95333 15.62 10.2C15.3867 10.44 15.27 10.7733 15.27 11.2C15.27 11.6267 15.3867 11.9667 15.62 12.22C15.86 12.4667 16.15 12.59 16.49 12.59C16.83 12.59 17.1167 12.4667 17.35 12.22C17.59 11.9733 17.71 11.6367 17.71 11.21ZM22.3671 6.6V14H20.6571V6.6H22.3671Z" fill="#F8A425"/>
</svg>
