<svg width="87" height="112" viewBox="0 0 87 112" fill="none" xmlns="http://www.w3.org/2000/svg">
<g clip-path="url(#clip0_214_189)">
<path d="M1 17C1 8.16345 8.16344 1 17 1H70C78.8366 1 86 8.16344 86 17V95C86 103.837 78.8366 111 70 111H17C8.16345 111 1 103.837 1 95V17ZM69.9109 56.1077C69.9109 53.5871 67.8632 51.5538 65.3423 51.5538C63.9265 51.5538 62.7737 50.405 62.7737 49C62.7737 41.3749 58.1877 34.805 51.6269 31.8706C49.7886 31.0484 48.4993 29.4433 48.4993 27.6769C48.4993 25.1564 46.4516 23.123 43.9307 23.123C41.4098 23.123 39.3621 25.1564 39.3621 27.6769C39.3621 29.4433 38.0728 31.0484 36.2345 31.8706C29.6737 34.805 25.0877 41.3749 25.0877 49C25.0877 50.405 23.935 51.5538 22.5191 51.5538C19.9982 51.5538 17.9505 53.5871 17.9505 56.1077C17.9505 58.6282 19.9982 60.6615 22.5191 60.6615H65.3423C67.8632 60.6615 69.9109 58.6282 69.9109 56.1077ZM65.3423 53.5538C66.7664 53.5538 67.9109 54.6995 67.9109 56.1077C67.9109 57.5158 66.7664 58.6615 65.3423 58.6615H22.5191C21.095 58.6615 19.9505 57.5158 19.9505 56.1077C19.9505 54.6995 21.095 53.5538 22.5191 53.5538C25.0287 53.5538 27.0877 51.5204 27.0877 49C27.0877 42.1978 31.1785 36.3229 37.0511 33.6964C39.3699 32.6592 41.3621 30.4645 41.3621 27.6769C41.3621 26.2687 42.5066 25.123 43.9307 25.123C45.3548 25.123 46.4993 26.2688 46.4993 27.6769C46.4993 30.4645 48.4915 32.6592 50.8103 33.6964C56.6829 36.3229 60.7737 42.1978 60.7737 49C60.7737 51.5204 62.8327 53.5538 65.3423 53.5538ZM58.2051 72.8769H29.6563C27.1354 72.8769 25.0877 74.9102 25.0877 77.4307C25.0877 79.9513 27.1354 81.9846 29.6563 81.9846H58.2051C60.726 81.9846 62.7737 79.9513 62.7737 77.4307C62.7737 74.9102 60.726 72.8769 58.2051 72.8769ZM29.6563 74.8769H58.2051C59.6292 74.8769 60.7737 76.0226 60.7737 77.4307C60.7737 78.8389 59.6292 79.9846 58.2051 79.9846H29.6563C28.2322 79.9846 27.0877 78.8389 27.0877 77.4307C27.0877 76.0226 28.2322 74.8769 29.6563 74.8769Z" fill="url(#paint0_linear_214_189)" stroke="url(#paint1_linear_214_189)" stroke-width="2"/>
<path d="M1 17C1 8.16345 8.16344 1 17 1H70C78.8366 1 86 8.16344 86 17V95C86 103.837 78.8366 111 70 111H17C8.16345 111 1 103.837 1 95V17ZM69.9109 56.1077C69.9109 53.5871 67.8632 51.5538 65.3423 51.5538C63.9265 51.5538 62.7737 50.405 62.7737 49C62.7737 41.3749 58.1877 34.805 51.6269 31.8706C49.7886 31.0484 48.4993 29.4433 48.4993 27.6769C48.4993 25.1564 46.4516 23.123 43.9307 23.123C41.4098 23.123 39.3621 25.1564 39.3621 27.6769C39.3621 29.4433 38.0728 31.0484 36.2345 31.8706C29.6737 34.805 25.0877 41.3749 25.0877 49C25.0877 50.405 23.935 51.5538 22.5191 51.5538C19.9982 51.5538 17.9505 53.5871 17.9505 56.1077C17.9505 58.6282 19.9982 60.6615 22.5191 60.6615H65.3423C67.8632 60.6615 69.9109 58.6282 69.9109 56.1077ZM65.3423 53.5538C66.7664 53.5538 67.9109 54.6995 67.9109 56.1077C67.9109 57.5158 66.7664 58.6615 65.3423 58.6615H22.5191C21.095 58.6615 19.9505 57.5158 19.9505 56.1077C19.9505 54.6995 21.095 53.5538 22.5191 53.5538C25.0287 53.5538 27.0877 51.5204 27.0877 49C27.0877 42.1978 31.1785 36.3229 37.0511 33.6964C39.3699 32.6592 41.3621 30.4645 41.3621 27.6769C41.3621 26.2687 42.5066 25.123 43.9307 25.123C45.3548 25.123 46.4993 26.2688 46.4993 27.6769C46.4993 30.4645 48.4915 32.6592 50.8103 33.6964C56.6829 36.3229 60.7737 42.1978 60.7737 49C60.7737 51.5204 62.8327 53.5538 65.3423 53.5538ZM58.2051 72.8769H29.6563C27.1354 72.8769 25.0877 74.9102 25.0877 77.4307C25.0877 79.9513 27.1354 81.9846 29.6563 81.9846H58.2051C60.726 81.9846 62.7737 79.9513 62.7737 77.4307C62.7737 74.9102 60.726 72.8769 58.2051 72.8769ZM29.6563 74.8769H58.2051C59.6292 74.8769 60.7737 76.0226 60.7737 77.4307C60.7737 78.8389 59.6292 79.9846 58.2051 79.9846H29.6563C28.2322 79.9846 27.0877 78.8389 27.0877 77.4307C27.0877 76.0226 28.2322 74.8769 29.6563 74.8769Z" fill="url(#paint2_linear_214_189)" stroke="white" stroke-width="2"/>
<path d="M68.9109 56.1077C68.9109 54.1433 67.3148 52.5538 65.3423 52.5538H61.7737V49C61.7737 40.4196 55.6355 33.2415 47.4993 31.5904V27.6769C47.4993 25.7126 45.9032 24.123 43.9307 24.123C41.9582 24.123 40.3621 25.7126 40.3621 27.6769V31.5904C32.2259 33.2415 26.0877 40.4196 26.0877 49V52.5538H22.5191C20.5466 52.5538 18.9505 54.1433 18.9505 56.1077C18.9505 58.072 20.5466 59.6615 22.5191 59.6615H65.3423C67.3148 59.6615 68.9109 58.072 68.9109 56.1077ZM58.2051 73.8769H29.6563C27.6838 73.8769 26.0877 75.4664 26.0877 77.4307C26.0877 79.3951 27.6838 80.9846 29.6563 80.9846H58.2051C60.1776 80.9846 61.7737 79.3951 61.7737 77.4307C61.7737 75.4664 60.1776 73.8769 58.2051 73.8769Z" fill="white"/>
</g>
<defs>
<linearGradient id="paint0_linear_214_189" x1="43.5" y1="-42.8025" x2="43.5" y2="149.452" gradientUnits="userSpaceOnUse">
<stop offset="0.630208" stop-color="#FFAE00"/>
<stop offset="1" stop-color="#FFCD1E"/>
</linearGradient>
<linearGradient id="paint1_linear_214_189" x1="43.5" y1="0" x2="43.5" y2="112" gradientUnits="userSpaceOnUse">
<stop stop-color="#FF9F00"/>
<stop offset="1" stop-color="#FFB800"/>
</linearGradient>
<linearGradient id="paint2_linear_214_189" x1="43.5" y1="-42.8025" x2="43.5" y2="149.452" gradientUnits="userSpaceOnUse">
<stop offset="0.630208" stop-color="#A60221"/>
<stop offset="1" stop-color="#FFCD1E"/>
</linearGradient>
<clipPath id="clip0_214_189">
<rect width="87" height="112" fill="white"/>
</clipPath>
</defs>
</svg>
