<svg width="340" height="158" viewBox="0 0 170 79" fill="none" xmlns="http://www.w3.org/2000/svg">
<path d="M21.76 70.16C21.664 70.4 21.34 70.52 20.788 70.52C20.236 70.52 19.756 70.364 19.348 70.052C19.06 69.764 18.868 69.536 18.772 69.368C18.7 69.224 18.748 68.96 18.916 68.576C19.084 68.216 19.372 67.568 19.78 66.632C19.876 66.056 20.044 65.48 20.284 64.904C20.524 64.304 20.704 63.884 20.824 63.644C20.92 63.308 21.112 62.756 21.4 61.988C21.712 61.196 22.06 60.32 22.444 59.36C22.852 58.4 23.236 57.5 23.596 56.66C23.956 55.796 24.22 55.148 24.388 54.716C24.796 53.756 25.216 52.748 25.648 51.692C26.08 50.636 26.668 49.304 27.412 47.696C27.508 47.456 27.472 47.204 27.304 46.94C27.136 46.676 26.848 46.544 26.44 46.544C26.2 46.28 26.068 46.004 26.044 45.716C26.02 45.404 26.14 45.188 26.404 45.068L29.716 43.952C30.844 43.688 31.996 43.616 33.172 43.736C34.372 43.832 35.5 44.156 36.556 44.708C37.708 45.38 38.548 46.124 39.076 46.94C39.604 47.756 39.892 48.584 39.94 49.424C40.012 50.24 39.916 50.984 39.652 51.656C39.46 52.16 39.088 52.712 38.536 53.312C38.008 53.912 37.384 54.512 36.664 55.112C35.968 55.712 35.236 56.264 34.468 56.768C33.724 57.248 33.028 57.62 32.38 57.884C31.78 58.172 31.108 58.472 30.364 58.784C29.62 59.072 28.9 59.324 28.204 59.54C27.82 59.636 27.364 59.684 26.836 59.684C26.308 59.684 25.912 59.636 25.648 59.54L25.036 60.692C24.796 61.556 24.376 62.84 23.776 64.544C23.2 66.248 22.528 68.12 21.76 70.16ZM36.052 70.844C35.86 70.916 35.536 70.94 35.08 70.916C34.648 70.892 34.156 70.7 33.604 70.34C32.548 69.716 31.492 68.96 30.436 68.072C29.38 67.184 28.192 65.984 26.872 64.472C26.368 63.872 25.984 63.272 25.72 62.672C25.48 62.072 25.168 61.316 24.784 60.404L24.28 58.46L25.648 57.56L27.232 58.856C27.616 59.696 28.06 60.5 28.564 61.268C29.092 62.036 29.62 62.72 30.148 63.32C30.58 63.824 31.168 64.436 31.912 65.156C32.656 65.852 33.448 66.524 34.288 67.172C35.128 67.82 35.884 68.312 36.556 68.648C36.7 68.768 36.736 68.996 36.664 69.332C36.616 69.692 36.52 70.028 36.376 70.34C36.256 70.652 36.148 70.82 36.052 70.844ZM26.98 56.732C27.532 56.684 28.132 56.54 28.78 56.3C29.452 56.036 30.16 55.748 30.904 55.436C31.6 55.1 32.284 54.74 32.956 54.356C33.652 53.948 34.276 53.504 34.828 53.024C35.404 52.544 35.848 52.028 36.16 51.476C36.496 50.924 36.64 50.336 36.592 49.712C36.592 49.4 36.496 49.052 36.304 48.668C36.112 48.284 35.86 47.936 35.548 47.624C35.26 47.312 34.96 47.108 34.648 47.012C33.688 46.772 32.956 46.628 32.452 46.58C31.948 46.532 31.576 46.604 31.336 46.796C31.12 46.988 30.952 47.324 30.832 47.804C30.832 47.876 30.736 48.104 30.544 48.488C30.352 48.872 30.112 49.364 29.824 49.964C29.56 50.54 29.296 51.164 29.032 51.836C28.336 53.252 27.82 54.296 27.484 54.968C27.172 55.616 26.98 56.048 26.908 56.264C26.86 56.48 26.884 56.636 26.98 56.732ZM45.7785 67.28C45.0585 67.688 44.2905 67.928 43.4745 68C42.6825 68.048 41.9385 67.94 41.2425 67.676C40.5465 67.388 39.9825 66.968 39.5505 66.416C39.3105 66.104 39.0825 65.612 38.8665 64.94C38.6505 64.244 38.6145 63.308 38.7585 62.132C38.9025 61.028 39.2385 59.912 39.7665 58.784C40.3185 57.656 40.9905 56.66 41.7825 55.796C42.5745 54.932 43.4385 54.344 44.3745 54.032C44.7105 53.912 45.0465 53.828 45.3825 53.78C45.7425 53.708 46.2105 53.696 46.7865 53.744C47.3385 53.816 47.8305 53.96 48.2625 54.176C48.6945 54.368 49.0065 54.584 49.1985 54.824C49.5825 55.208 49.8345 55.58 49.9545 55.94C50.0745 56.3 50.1225 56.648 50.0985 56.984C49.9785 57.752 49.6305 58.58 49.0545 59.468C48.5025 60.356 47.7225 61.016 46.7145 61.448C46.3065 61.616 45.8265 61.724 45.2745 61.772C44.7225 61.82 43.9665 61.748 43.0065 61.556C42.4305 61.436 42.0465 61.496 41.8545 61.736C41.6865 61.976 41.6145 62.444 41.6385 63.14C41.6865 63.572 41.7825 63.956 41.9265 64.292C42.0945 64.604 42.3945 64.82 42.8265 64.94C43.3785 65.036 43.7745 65.048 44.0145 64.976C44.2545 64.88 44.5545 64.748 44.9145 64.58C45.1065 64.46 45.2865 64.328 45.4545 64.184C45.6465 64.04 45.8265 63.896 45.9945 63.752C46.1865 63.608 46.3425 63.5 46.4625 63.428C46.5825 63.332 46.7025 63.272 46.8225 63.248C46.9425 63.224 47.0625 63.212 47.1825 63.212C47.4465 63.236 47.6985 63.38 47.9385 63.644C48.1785 63.908 48.3345 64.16 48.4065 64.4C48.4065 64.592 48.2865 64.868 48.0465 65.228C47.8065 65.564 47.4825 65.924 47.0745 66.308C46.6905 66.668 46.2585 66.992 45.7785 67.28ZM45.3105 59.252C45.4785 59.18 45.7185 59.012 46.0305 58.748C46.3665 58.484 46.6665 58.208 46.9305 57.92C47.1945 57.608 47.3265 57.368 47.3265 57.2C47.3265 56.936 47.1465 56.708 46.7865 56.516C46.4505 56.324 46.0065 56.288 45.4545 56.408C45.2625 56.456 45.0345 56.588 44.7705 56.804C44.5065 57.02 44.2425 57.272 43.9785 57.56C43.7145 57.824 43.4865 58.088 43.2945 58.352C43.1025 58.592 42.9705 58.784 42.8985 58.928C42.9945 59.048 43.1865 59.144 43.4745 59.216C43.7625 59.288 44.0745 59.324 44.4105 59.324C44.7705 59.324 45.0705 59.3 45.3105 59.252ZM52.7619 68.216C51.9459 67.88 51.3459 67.532 50.9619 67.172C50.6019 66.788 50.4579 66.452 50.5299 66.164C50.5779 66.02 50.6619 65.888 50.7819 65.768C50.9019 65.648 51.1659 65.6 51.5739 65.624C52.0059 65.624 52.6659 65.732 53.5539 65.948C53.8179 65.948 54.0819 65.936 54.3459 65.912C54.6099 65.888 54.8499 65.852 55.0659 65.804C55.3059 65.756 55.4979 65.696 55.6419 65.624C55.7619 65.576 55.7979 65.516 55.7499 65.444C55.7019 65.348 55.6179 65.252 55.4979 65.156C55.4019 65.036 55.2939 64.964 55.1739 64.94C55.0539 64.892 54.9459 64.868 54.8499 64.868C54.8019 64.748 54.6939 64.628 54.5259 64.508C54.3819 64.388 54.2019 64.256 53.9859 64.112C53.4579 63.68 52.9779 63.296 52.5459 62.96C52.1139 62.624 51.9459 62.372 52.0419 62.204C52.0419 62.108 52.0419 62.06 52.0419 62.06C52.0419 62.036 52.0419 62.024 52.0419 62.024C51.8739 62.024 51.7179 61.796 51.5739 61.34C51.4299 60.86 51.3579 60.428 51.3579 60.044C51.3579 59.564 51.4539 59.084 51.6459 58.604C51.8619 58.124 52.1259 57.668 52.4379 57.236C52.7739 56.804 53.1099 56.42 53.4459 56.084C53.9019 55.652 54.3819 55.232 54.8859 54.824C55.4139 54.392 55.9779 54.008 56.5779 53.672C57.2019 53.336 57.8859 53.072 58.6299 52.88C58.9659 52.808 59.3499 52.772 59.7819 52.772C60.2139 52.772 60.5259 52.832 60.7179 52.952C60.9099 52.832 61.1499 52.868 61.4379 53.06C61.7259 53.228 62.0139 53.468 62.3019 53.78C62.5899 54.092 62.8059 54.404 62.9499 54.716C62.9499 55.004 62.9379 55.364 62.9139 55.796C62.9139 56.204 62.8899 56.564 62.8419 56.876C62.7939 57.188 62.6859 57.344 62.5179 57.344C62.5179 57.344 62.4819 57.356 62.4099 57.38C62.3619 57.38 62.3379 57.44 62.3379 57.56C62.3379 57.8 62.1579 58.076 61.7979 58.388C61.3419 58.7 60.9099 58.952 60.5019 59.144C60.0939 59.336 59.7819 59.348 59.5659 59.18C59.4219 59.084 59.2899 58.988 59.1699 58.892C59.0499 58.796 58.9419 58.676 58.8459 58.532C58.8459 58.532 58.8099 58.484 58.7379 58.388C58.6899 58.268 58.6659 58.16 58.6659 58.064C58.6659 57.968 58.7019 57.884 58.7739 57.812C58.8459 57.716 58.8819 57.668 58.8819 57.668C59.2179 57.356 59.4699 57.068 59.6379 56.804C59.8299 56.54 59.9619 56.312 60.0339 56.12C60.1059 55.904 60.1419 55.736 60.1419 55.616C60.1419 55.472 60.1059 55.388 60.0339 55.364C59.9859 55.316 59.8659 55.292 59.6739 55.292C59.5539 55.292 59.2899 55.388 58.8819 55.58C58.4979 55.772 58.0899 56.012 57.6579 56.3C57.2259 56.564 56.8899 56.804 56.6499 57.02C56.5539 57.188 56.4819 57.296 56.4339 57.344C56.4099 57.392 56.3499 57.416 56.2539 57.416C56.2539 57.32 56.1939 57.332 56.0739 57.452C55.9539 57.572 55.8099 57.74 55.6419 57.956C55.4739 58.172 55.3059 58.4 55.1379 58.64C54.9699 58.88 54.8379 59.072 54.7419 59.216C54.7179 59.432 54.6579 59.636 54.5619 59.828C54.4899 59.996 54.4659 60.176 54.4899 60.368C54.5139 60.608 54.6339 60.836 54.8499 61.052C55.0659 61.268 55.3779 61.544 55.7859 61.88C56.6259 62.504 57.2499 62.996 57.6579 63.356C58.0899 63.716 58.3899 64.004 58.5579 64.22C58.7259 64.436 58.8339 64.652 58.8819 64.868C59.2899 65.612 59.3379 66.26 59.0259 66.812C58.7139 67.34 58.2339 67.748 57.5859 68.036C57.3459 68.156 56.9259 68.264 56.3259 68.36C55.7259 68.48 55.0899 68.528 54.4179 68.504C53.7699 68.504 53.2179 68.408 52.7619 68.216ZM68.1198 68.216C67.7838 68.12 67.4478 67.952 67.1118 67.712C66.7758 67.472 66.4278 67.196 66.0678 66.884C65.7798 66.5 65.5758 66.152 65.4558 65.84C65.3358 65.504 65.2638 65.12 65.2398 64.688C65.2398 64.232 65.2398 63.656 65.2398 62.96C65.2398 62.672 65.2878 62.264 65.3838 61.736C65.5038 61.208 65.6238 60.656 65.7438 60.08C65.8878 59.504 66.0198 59 66.1398 58.568C66.2598 58.112 66.3318 57.812 66.3558 57.668C66.4278 57.356 66.3078 57.176 65.9958 57.128C65.6838 57.08 65.3358 57.068 64.9518 57.092C64.5918 57.092 64.3518 57.056 64.2318 56.984C64.1358 56.96 64.0878 56.84 64.0878 56.624C64.0878 56.384 64.0878 56.264 64.0878 56.264C64.0878 56.168 64.0398 56.108 63.9438 56.084C63.8478 56.036 63.7638 55.952 63.6918 55.832C63.6438 55.736 63.7038 55.556 63.8718 55.292C64.0398 55.028 64.2558 54.872 64.5198 54.824C64.7358 54.776 65.0598 54.74 65.4918 54.716C65.9238 54.668 66.3558 54.584 66.7878 54.464C67.2438 54.32 67.5918 54.104 67.8318 53.816C68.0478 53.288 68.2878 52.724 68.5518 52.124C68.8158 51.5 69.0678 50.96 69.3078 50.504C69.5478 50.024 69.7158 49.724 69.8118 49.604C70.2198 49.388 70.6398 49.304 71.0718 49.352C71.5038 49.376 71.8398 49.58 72.0798 49.964C72.1998 50.132 72.2958 50.252 72.3678 50.324C72.4638 50.396 72.4998 50.504 72.4758 50.648C72.4758 50.792 72.3798 51.056 72.1878 51.44C72.0198 51.8 71.7318 52.364 71.3238 53.132C71.2038 53.372 71.0958 53.588 70.9998 53.78C70.9038 53.948 70.8558 54.032 70.8558 54.032C70.9518 54.056 71.0958 54.068 71.2878 54.068C71.4798 54.068 71.7198 54.056 72.0078 54.032C72.2718 53.984 72.5598 53.948 72.8718 53.924C73.1838 53.876 73.4598 53.876 73.6998 53.924C74.2518 53.924 74.6598 54.08 74.9238 54.392C75.1878 54.704 75.3318 55.1 75.3558 55.58C75.4038 55.844 75.3078 56.072 75.0678 56.264C74.8278 56.456 74.3838 56.552 73.7358 56.552C73.5198 56.552 73.2078 56.564 72.7998 56.588C72.3918 56.612 71.9718 56.636 71.5398 56.66C71.1078 56.684 70.7358 56.72 70.4238 56.768C70.1358 56.792 69.9918 56.828 69.9918 56.876C69.9198 56.924 69.7998 57.116 69.6318 57.452C69.4878 57.764 69.3318 58.148 69.1638 58.604C69.0198 59.06 68.8878 59.492 68.7678 59.9C68.5998 60.716 68.4798 61.508 68.4078 62.276C68.3358 63.044 68.3238 63.716 68.3718 64.292C68.4438 64.844 68.5878 65.24 68.8038 65.48C69.0198 65.696 69.3438 65.696 69.7758 65.48C70.2318 65.24 70.6518 64.964 71.0358 64.652C71.4678 64.292 71.8398 64.184 72.1518 64.328C72.4638 64.448 72.6558 64.712 72.7278 65.12C72.8238 65.504 72.7158 65.924 72.4038 66.38C72.1158 66.836 71.7078 67.22 71.1798 67.532C70.6518 67.844 70.1118 68.06 69.5598 68.18C69.0078 68.324 68.5278 68.336 68.1198 68.216ZM78.5618 67.496C78.3698 67.544 78.1178 67.568 77.8058 67.568C77.4938 67.544 77.2178 67.508 76.9778 67.46C76.7618 67.388 76.6538 67.316 76.6538 67.244C76.6538 67.124 76.5938 67.064 76.4738 67.064C76.4738 67.064 76.3418 66.968 76.0778 66.776C75.8138 66.56 75.5738 66.404 75.3578 66.308C75.1418 65.972 74.9978 65.588 74.9258 65.156C74.8778 64.7 75.0218 63.908 75.3578 62.78C75.3818 62.012 75.5978 61.208 76.0058 60.368C76.4138 59.504 76.9298 58.664 77.5538 57.848C78.1778 57.032 78.8258 56.312 79.4978 55.688C80.1698 55.04 80.7698 54.56 81.2978 54.248C81.6338 53.912 82.0778 53.732 82.6298 53.708C83.2058 53.684 83.7098 53.792 84.1418 54.032C84.3818 54.152 84.6458 54.392 84.9338 54.752C85.2218 55.112 85.4978 55.496 85.7618 55.904C86.0258 56.288 86.2298 56.636 86.3738 56.948C86.4458 57.212 86.5058 57.452 86.5538 57.668C86.6258 57.86 86.6738 58.1 86.6978 58.388C86.7218 58.676 86.6978 59.108 86.6258 59.684C86.5058 60.116 86.3978 60.56 86.3018 61.016C86.2298 61.448 86.1938 61.892 86.1938 62.348C86.1458 62.804 86.1938 63.128 86.3378 63.32C86.5058 63.512 86.7458 63.524 87.0578 63.356C87.3458 63.212 87.6458 63.2 87.9578 63.32C88.2698 63.416 88.4858 63.608 88.6058 63.896C88.7498 64.16 88.7138 64.508 88.4978 64.94C88.3538 65.252 88.1258 65.552 87.8138 65.84C87.5018 66.128 87.1538 66.368 86.7698 66.56C86.3858 66.728 86.0138 66.812 85.6538 66.812C85.3898 66.812 85.1258 66.716 84.8618 66.524C84.5978 66.308 84.3578 66.02 84.1418 65.66C83.9258 65.3 83.7458 64.904 83.6018 64.472L83.3858 63.644L82.0898 64.832C81.7778 65.168 81.4658 65.48 81.1538 65.768C80.8658 66.032 80.6858 66.224 80.6138 66.344C80.4938 66.56 80.2538 66.752 79.8938 66.92C79.5578 67.088 79.1138 67.28 78.5618 67.496ZM79.5338 64.04C79.9418 63.8 80.2898 63.512 80.5778 63.176C80.8898 62.84 81.1898 62.468 81.4778 62.06C81.7658 61.628 82.0778 61.172 82.4138 60.692C82.8218 60.14 83.1098 59.696 83.2778 59.36C83.4698 59.024 83.6138 58.664 83.7098 58.28C83.6138 58.016 83.4818 57.74 83.3138 57.452C83.1458 57.14 82.9778 56.972 82.8098 56.948C82.4738 56.948 82.0658 57.152 81.5858 57.56C81.1298 57.968 80.6258 58.556 80.0738 59.324C79.9778 59.444 79.8578 59.636 79.7138 59.9C79.5698 60.164 79.4258 60.416 79.2818 60.656C79.1618 60.872 79.0778 61.016 79.0298 61.088C78.9578 61.184 78.8498 61.412 78.7058 61.772C78.5858 62.108 78.4778 62.456 78.3818 62.816C78.2858 63.152 78.2378 63.392 78.2378 63.536C78.2378 63.68 78.2498 63.836 78.2738 64.004C78.3218 64.172 78.4418 64.28 78.6338 64.328C78.8258 64.376 79.1258 64.28 79.5338 64.04ZM92.6434 66.74C92.1874 66.332 91.7914 65.912 91.4554 65.48C91.1194 65.024 90.8914 64.328 90.7714 63.392C90.7234 62.96 90.7714 62.36 90.9154 61.592C91.0594 60.824 91.2754 60.02 91.5634 59.18C91.8514 58.316 92.1634 57.524 92.4994 56.804C92.8354 56.084 93.1714 55.556 93.5074 55.22C93.7954 54.86 94.1554 54.572 94.5874 54.356C95.0434 54.14 95.5114 54.14 95.9914 54.356C96.2554 54.668 96.3874 55.1 96.3874 55.652C96.4114 56.18 96.2794 56.672 95.9914 57.128C95.5114 57.776 95.0914 58.592 94.7314 59.576C94.3954 60.536 94.1674 61.4 94.0474 62.168C93.8794 62.72 93.8074 63.152 93.8314 63.464C93.8554 63.752 94.0234 63.932 94.3354 64.004C94.7914 64.124 95.2594 63.992 95.7394 63.608C96.2434 63.224 96.7234 62.66 97.1794 61.916C97.6594 61.172 98.0794 60.32 98.4394 59.36C98.5834 59.024 98.6914 58.628 98.7634 58.172C98.8594 57.716 98.9554 57.38 99.0514 57.164C99.1714 56.684 99.3754 56.312 99.6634 56.048C99.9754 55.76 100.299 55.58 100.635 55.508C100.971 55.436 101.223 55.472 101.391 55.616C101.607 55.712 101.835 55.868 102.075 56.084C102.315 56.3 102.411 56.684 102.363 57.236C102.363 58.124 102.171 58.88 101.787 59.504C101.403 60.128 101.079 60.788 100.815 61.484C100.599 61.988 100.251 62.576 99.7714 63.248C99.2914 63.92 98.7754 64.532 98.2234 65.084C97.6954 65.636 97.2034 66.008 96.7474 66.2C96.0754 66.632 95.3914 66.896 94.6954 66.992C93.9994 67.064 93.3154 66.98 92.6434 66.74ZM104.528 67.46C104.36 67.46 104.132 67.34 103.844 67.1C103.58 66.86 103.424 66.644 103.376 66.452C103.304 66.26 103.304 65.984 103.376 65.624C103.472 65.24 103.604 64.796 103.772 64.292C103.964 63.5 104.096 62.924 104.168 62.564C104.24 62.204 104.312 61.892 104.384 61.628C104.456 61.364 104.552 60.98 104.672 60.476C104.816 60.164 104.924 59.864 104.996 59.576C105.092 59.264 105.188 58.952 105.284 58.64C105.404 58.328 105.536 58.016 105.68 57.704C105.848 57.08 106.052 56.492 106.292 55.94C106.556 55.364 106.808 54.884 107.048 54.5C107.096 54.428 107.204 54.296 107.372 54.104C107.54 53.912 107.672 53.816 107.768 53.816C107.96 53.624 108.224 53.564 108.56 53.636C108.896 53.684 109.184 53.804 109.424 53.996C109.712 54.308 109.868 54.68 109.892 55.112C109.94 55.52 109.772 56.096 109.388 56.84C109.1 57.584 108.824 58.172 108.56 58.604C108.32 59.012 108.08 59.492 107.84 60.044C108.104 59.66 108.428 59.264 108.812 58.856C109.196 58.448 109.496 58.124 109.712 57.884C110.024 57.548 110.312 57.284 110.576 57.092C110.864 56.876 111.248 56.612 111.728 56.3C112.136 56.012 112.544 55.748 112.952 55.508C113.384 55.268 113.9 55.196 114.5 55.292C114.74 55.268 114.992 55.388 115.256 55.652C115.544 55.916 115.76 56.264 115.904 56.696C116.072 57.104 116.072 57.548 115.904 58.028C115.352 57.908 114.86 57.932 114.428 58.1C113.996 58.244 113.624 58.424 113.312 58.64C113.024 58.856 112.796 59.024 112.628 59.144C112.388 59.288 112.112 59.48 111.8 59.72C111.488 59.936 111.152 60.188 110.792 60.476C110.432 60.74 110.048 61.04 109.64 61.376C109.064 61.856 108.632 62.276 108.344 62.636C108.056 62.996 107.828 63.38 107.66 63.788C107.516 64.148 107.336 64.58 107.12 65.084C106.904 65.588 106.7 66.044 106.508 66.452C106.316 66.836 106.16 67.076 106.04 67.172C105.92 67.412 105.668 67.544 105.284 67.568C104.924 67.592 104.672 67.556 104.528 67.46ZM117.284 67.244C117.188 67.052 116.972 66.86 116.636 66.668C116.324 66.476 116.168 66.332 116.168 66.236C116.168 66.14 116.108 65.996 115.988 65.804C115.892 65.588 115.796 65.432 115.7 65.336C115.58 65.192 115.616 64.844 115.808 64.292C116 63.716 116.288 63.02 116.672 62.204C117.056 61.388 117.476 60.56 117.932 59.72C118.124 59.528 118.316 59.276 118.508 58.964C118.7 58.652 118.844 58.448 118.94 58.352C118.94 58.256 118.976 58.172 119.048 58.1C119.12 58.004 119.204 57.956 119.3 57.956L119.588 57.38C119.636 57.284 119.78 57.092 120.02 56.804C120.284 56.516 120.596 56.204 120.956 55.868C121.316 55.508 121.676 55.172 122.036 54.86C122.42 54.548 122.732 54.32 122.972 54.176C123.476 53.84 123.992 53.684 124.52 53.708C125.072 53.732 125.54 53.9 125.924 54.212C125.996 54.284 126.152 54.428 126.392 54.644C126.656 54.86 126.944 55.1 127.256 55.364C127.592 55.628 127.88 55.868 128.12 56.084L129.452 57.272L128.84 59.072C128.528 60.032 128.444 60.872 128.588 61.592C128.732 62.312 128.96 62.936 129.272 63.464C129.392 63.728 129.548 63.932 129.74 64.076C129.956 64.22 130.232 64.316 130.568 64.364C130.76 64.388 130.94 64.46 131.108 64.58C131.276 64.7 131.36 64.892 131.36 65.156C131.36 65.732 131.252 66.152 131.036 66.416C130.844 66.656 130.628 66.8 130.388 66.848C129.596 66.944 128.84 66.86 128.12 66.596C127.4 66.332 126.752 65.648 126.176 64.544C126.08 64.4 125.948 64.136 125.78 63.752C125.636 63.344 125.552 63.08 125.528 62.96C125.432 63.08 125.3 63.236 125.132 63.428C124.988 63.596 124.844 63.752 124.7 63.896C122.996 65.624 121.532 66.752 120.308 67.28C119.108 67.784 118.1 67.772 117.284 67.244ZM119.264 64.256C119.432 64.28 119.696 64.196 120.056 64.004C120.416 63.788 120.896 63.44 121.496 62.96C122.312 62.264 122.984 61.688 123.512 61.232C124.04 60.776 124.556 60.188 125.06 59.468L125.852 58.172C125.612 57.62 125.396 57.26 125.204 57.092C125.012 56.924 124.82 56.84 124.628 56.84C124.316 56.84 123.944 57.044 123.512 57.452C123.08 57.836 122.588 58.412 122.036 59.18C121.508 59.924 120.908 60.86 120.236 61.988C119.924 62.516 119.684 63.032 119.516 63.536C119.348 64.016 119.264 64.256 119.264 64.256ZM144.835 67.136C144.307 67.088 143.863 66.98 143.503 66.812C143.167 66.62 142.891 66.248 142.675 65.696C142.579 65.312 142.531 64.916 142.531 64.508C142.555 64.076 142.591 63.668 142.639 63.284C142.687 62.876 142.711 62.528 142.711 62.24C142.711 62.192 142.711 62.096 142.711 61.952C142.711 61.808 142.711 61.676 142.711 61.556C142.663 61.196 142.567 60.98 142.423 60.908C142.303 60.812 142.087 60.824 141.775 60.944C141.271 61.184 140.719 61.508 140.119 61.916C139.543 62.3 138.931 62.756 138.283 63.284C137.659 63.788 137.011 64.328 136.339 64.904C135.811 65.48 135.415 65.948 135.151 66.308C134.911 66.668 134.659 66.848 134.395 66.848C134.203 66.944 133.999 66.92 133.783 66.776C133.567 66.632 133.339 66.464 133.099 66.272C132.931 66.08 132.727 65.84 132.487 65.552C132.271 65.24 132.139 65.036 132.091 64.94C132.091 64.556 132.115 64.208 132.163 63.896C132.235 63.584 132.331 63.26 132.451 62.924C132.595 62.588 132.763 62.204 132.955 61.772C133.051 61.604 133.135 61.436 133.207 61.268C133.303 61.076 133.411 60.872 133.531 60.656C133.627 60.32 133.759 59.936 133.927 59.504C134.119 59.072 134.299 58.664 134.467 58.28C134.731 57.656 134.935 57.116 135.079 56.66C135.223 56.204 135.343 55.712 135.439 55.184C135.415 55.136 135.427 55.064 135.475 54.968C135.523 54.872 135.595 54.812 135.691 54.788H135.727H135.763C135.931 54.668 136.243 54.656 136.699 54.752C137.179 54.824 137.539 54.956 137.779 55.148C138.283 55.58 138.523 56.144 138.499 56.84C138.475 57.536 138.115 58.448 137.419 59.576C137.251 59.96 137.071 60.32 136.879 60.656C136.711 60.968 136.627 61.184 136.627 61.304C136.627 61.304 136.723 61.232 136.915 61.088C137.107 60.944 137.335 60.776 137.599 60.584C137.863 60.368 138.091 60.2 138.283 60.08C138.403 59.96 138.667 59.744 139.075 59.432C139.483 59.096 139.927 58.748 140.407 58.388C140.887 58.028 141.271 57.752 141.559 57.56C141.823 57.368 142.159 57.176 142.567 56.984C142.975 56.768 143.227 56.66 143.323 56.66C143.563 56.66 143.851 56.744 144.187 56.912C144.547 57.08 144.871 57.284 145.159 57.524C145.471 57.74 145.651 57.944 145.699 58.136C145.699 58.232 145.687 58.364 145.663 58.532C145.639 58.676 145.627 58.808 145.627 58.928C145.603 59.312 145.591 59.78 145.591 60.332C145.615 60.86 145.627 61.4 145.627 61.952C145.627 62.48 145.579 62.96 145.483 63.392C145.483 63.392 145.495 63.416 145.519 63.464C145.543 63.488 145.567 63.536 145.591 63.608C145.567 63.632 145.555 63.68 145.555 63.752C145.579 63.8 145.591 63.824 145.591 63.824C145.639 63.992 145.687 64.16 145.735 64.328C145.807 64.496 145.891 64.688 145.987 64.904C146.083 65.096 146.191 65.348 146.311 65.66C146.287 65.972 146.107 66.284 145.771 66.596C145.459 66.884 145.147 67.064 144.835 67.136ZM153.69 68.216C153.354 68.12 153.018 67.952 152.682 67.712C152.346 67.472 151.998 67.196 151.638 66.884C151.35 66.5 151.146 66.152 151.026 65.84C150.906 65.504 150.834 65.12 150.81 64.688C150.81 64.232 150.81 63.656 150.81 62.96C150.81 62.672 150.858 62.264 150.954 61.736C151.074 61.208 151.194 60.656 151.314 60.08C151.458 59.504 151.59 59 151.71 58.568C151.83 58.112 151.902 57.812 151.926 57.668C151.998 57.356 151.878 57.176 151.566 57.128C151.254 57.08 150.906 57.068 150.522 57.092C150.162 57.092 149.922 57.056 149.802 56.984C149.706 56.96 149.658 56.84 149.658 56.624C149.658 56.384 149.658 56.264 149.658 56.264C149.658 56.168 149.61 56.108 149.514 56.084C149.418 56.036 149.334 55.952 149.262 55.832C149.214 55.736 149.274 55.556 149.442 55.292C149.61 55.028 149.826 54.872 150.09 54.824C150.306 54.776 150.63 54.74 151.062 54.716C151.494 54.668 151.926 54.584 152.358 54.464C152.814 54.32 153.162 54.104 153.402 53.816C153.618 53.288 153.858 52.724 154.122 52.124C154.386 51.5 154.638 50.96 154.878 50.504C155.118 50.024 155.286 49.724 155.382 49.604C155.79 49.388 156.21 49.304 156.642 49.352C157.074 49.376 157.41 49.58 157.65 49.964C157.77 50.132 157.866 50.252 157.938 50.324C158.034 50.396 158.07 50.504 158.046 50.648C158.046 50.792 157.95 51.056 157.758 51.44C157.59 51.8 157.302 52.364 156.894 53.132C156.774 53.372 156.666 53.588 156.57 53.78C156.474 53.948 156.426 54.032 156.426 54.032C156.522 54.056 156.666 54.068 156.858 54.068C157.05 54.068 157.29 54.056 157.578 54.032C157.842 53.984 158.13 53.948 158.442 53.924C158.754 53.876 159.03 53.876 159.27 53.924C159.822 53.924 160.23 54.08 160.494 54.392C160.758 54.704 160.902 55.1 160.926 55.58C160.974 55.844 160.878 56.072 160.638 56.264C160.398 56.456 159.954 56.552 159.306 56.552C159.09 56.552 158.778 56.564 158.37 56.588C157.962 56.612 157.542 56.636 157.11 56.66C156.678 56.684 156.306 56.72 155.994 56.768C155.706 56.792 155.562 56.828 155.562 56.876C155.49 56.924 155.37 57.116 155.202 57.452C155.058 57.764 154.902 58.148 154.734 58.604C154.59 59.06 154.458 59.492 154.338 59.9C154.17 60.716 154.05 61.508 153.978 62.276C153.906 63.044 153.894 63.716 153.942 64.292C154.014 64.844 154.158 65.24 154.374 65.48C154.59 65.696 154.914 65.696 155.346 65.48C155.802 65.24 156.222 64.964 156.606 64.652C157.038 64.292 157.41 64.184 157.722 64.328C158.034 64.448 158.226 64.712 158.298 65.12C158.394 65.504 158.286 65.924 157.974 66.38C157.686 66.836 157.278 67.22 156.75 67.532C156.222 67.844 155.682 68.06 155.13 68.18C154.578 68.324 154.098 68.336 153.69 68.216Z" fill="white"/>
<path d="M16.884 40L8.388 28.84V40H2.232V14.728H8.388V25.816L16.812 14.728H24.048L14.256 27.112L24.408 40H16.884ZM26.1096 29.92C26.1096 27.856 26.4936 26.044 27.2616 24.484C28.0536 22.924 29.1216 21.724 30.4656 20.884C31.8096 20.044 33.3096 19.624 34.9656 19.624C36.3816 19.624 37.6176 19.912 38.6736 20.488C39.7536 21.064 40.5816 21.82 41.1576 22.756V19.912H47.3136V40H41.1576V37.156C40.5576 38.092 39.7176 38.848 38.6376 39.424C37.5816 40 36.3456 40.288 34.9296 40.288C33.2976 40.288 31.8096 39.868 30.4656 39.028C29.1216 38.164 28.0536 36.952 27.2616 35.392C26.4936 33.808 26.1096 31.984 26.1096 29.92ZM41.1576 29.956C41.1576 28.42 40.7256 27.208 39.8616 26.32C39.0216 25.432 37.9896 24.988 36.7656 24.988C35.5416 24.988 34.4976 25.432 33.6336 26.32C32.7936 27.184 32.3736 28.384 32.3736 29.92C32.3736 31.456 32.7936 32.68 33.6336 33.592C34.4976 34.48 35.5416 34.924 36.7656 34.924C37.9896 34.924 39.0216 34.48 39.8616 33.592C40.7256 32.704 41.1576 31.492 41.1576 29.956ZM64.1152 19.696C66.4192 19.696 68.2672 20.464 69.6592 22C71.0512 23.512 71.7472 25.6 71.7472 28.264V40H65.6272V29.092C65.6272 27.748 65.2792 26.704 64.5832 25.96C63.8872 25.216 62.9512 24.844 61.7752 24.844C60.5992 24.844 59.6632 25.216 58.9672 25.96C58.2712 26.704 57.9232 27.748 57.9232 29.092V40H51.7672V13.36H57.9232V22.612C58.5472 21.724 59.3992 21.016 60.4792 20.488C61.5592 19.96 62.7712 19.696 64.1152 19.696ZM74.801 29.92C74.801 27.856 75.185 26.044 75.953 24.484C76.745 22.924 77.813 21.724 79.157 20.884C80.501 20.044 82.001 19.624 83.657 19.624C85.073 19.624 86.309 19.912 87.365 20.488C88.445 21.064 89.273 21.82 89.849 22.756V19.912H96.005V40H89.849V37.156C89.249 38.092 88.409 38.848 87.329 39.424C86.273 40 85.037 40.288 83.621 40.288C81.989 40.288 80.501 39.868 79.157 39.028C77.813 38.164 76.745 36.952 75.953 35.392C75.185 33.808 74.801 31.984 74.801 29.92ZM89.849 29.956C89.849 28.42 89.417 27.208 88.553 26.32C87.713 25.432 86.681 24.988 85.457 24.988C84.233 24.988 83.189 25.432 82.325 26.32C81.485 27.184 81.065 28.384 81.065 29.92C81.065 31.456 81.485 32.68 82.325 33.592C83.189 34.48 84.233 34.924 85.457 34.924C86.681 34.924 87.713 34.48 88.553 33.592C89.417 32.704 89.849 31.492 89.849 29.956ZM120.979 19.912L108.379 49.54H101.755L106.363 39.316L98.1906 19.912H105.067L109.711 32.476L114.319 19.912H120.979ZM121.981 29.92C121.981 27.856 122.365 26.044 123.133 24.484C123.925 22.924 124.993 21.724 126.337 20.884C127.681 20.044 129.181 19.624 130.837 19.624C132.253 19.624 133.489 19.912 134.545 20.488C135.625 21.064 136.453 21.82 137.029 22.756V19.912H143.185V40H137.029V37.156C136.429 38.092 135.589 38.848 134.509 39.424C133.453 40 132.217 40.288 130.801 40.288C129.169 40.288 127.681 39.868 126.337 39.028C124.993 38.164 123.925 36.952 123.133 35.392C122.365 33.808 121.981 31.984 121.981 29.92ZM137.029 29.956C137.029 28.42 136.597 27.208 135.733 26.32C134.893 25.432 133.861 24.988 132.637 24.988C131.413 24.988 130.369 25.432 129.505 26.32C128.665 27.184 128.245 28.384 128.245 29.92C128.245 31.456 128.665 32.68 129.505 33.592C130.369 34.48 131.413 34.924 132.637 34.924C133.861 34.924 134.893 34.48 135.733 33.592C136.597 32.704 137.029 31.492 137.029 29.956ZM155.27 19.624C156.686 19.624 157.922 19.912 158.978 20.488C160.058 21.064 160.886 21.82 161.462 22.756V19.912H167.618V39.964C167.618 41.812 167.246 43.48 166.502 44.968C165.782 46.48 164.666 47.68 163.154 48.568C161.666 49.456 159.806 49.9 157.574 49.9C154.598 49.9 152.186 49.192 150.338 47.776C148.49 46.384 147.434 44.488 147.17 42.088H153.254C153.446 42.856 153.902 43.456 154.622 43.888C155.342 44.344 156.23 44.572 157.286 44.572C158.558 44.572 159.566 44.2 160.31 43.456C161.078 42.736 161.462 41.572 161.462 39.964V37.12C160.862 38.056 160.034 38.824 158.978 39.424C157.922 40 156.686 40.288 155.27 40.288C153.614 40.288 152.114 39.868 150.77 39.028C149.426 38.164 148.358 36.952 147.566 35.392C146.798 33.808 146.414 31.984 146.414 29.92C146.414 27.856 146.798 26.044 147.566 24.484C148.358 22.924 149.426 21.724 150.77 20.884C152.114 20.044 153.614 19.624 155.27 19.624ZM161.462 29.956C161.462 28.42 161.03 27.208 160.166 26.32C159.326 25.432 158.294 24.988 157.07 24.988C155.846 24.988 154.802 25.432 153.938 26.32C153.098 27.184 152.678 28.384 152.678 29.92C152.678 31.456 153.098 32.68 153.938 33.592C154.802 34.48 155.846 34.924 157.07 34.924C158.294 34.924 159.326 34.48 160.166 33.592C161.03 32.704 161.462 31.492 161.462 29.956Z" fill="white"/>
</svg>
