<svg width="40" height="40" viewBox="0 0 40 40" fill="none" xmlns="http://www.w3.org/2000/svg">
<path fill-rule="evenodd" clip-rule="evenodd" d="M18.3332 30C24.7765 30 29.9998 24.7767 29.9998 18.3333C29.9998 11.89 24.7765 6.66667 18.3332 6.66667C11.8898 6.66667 6.6665 11.89 6.6665 18.3333C6.6665 24.7767 11.8898 30 18.3332 30ZM18.3332 10.6667C17.3264 10.6667 16.3294 10.865 15.3993 11.2503C14.4691 11.6355 13.6239 12.2003 12.912 12.9122C12.2001 13.6241 11.6354 14.4693 11.2501 15.3994C10.8648 16.3296 10.6665 17.3265 10.6665 18.3333C10.6665 18.8856 11.1142 19.3333 11.6665 19.3333C12.2188 19.3333 12.6665 18.8856 12.6665 18.3333C12.6665 17.5892 12.8131 16.8523 13.0979 16.1648C13.3826 15.4773 13.8 14.8526 14.3262 14.3264C14.8524 13.8002 15.4771 13.3828 16.1646 13.098C16.8521 12.8132 17.589 12.6667 18.3332 12.6667C18.8855 12.6667 19.3332 12.219 19.3332 11.6667C19.3332 11.1144 18.8855 10.6667 18.3332 10.6667Z" fill="black" fill-opacity="0.25"/>
<path d="M33.3333 33.3333L30 30" stroke="black" stroke-opacity="0.25" stroke-width="2" stroke-linecap="round"/>
</svg>
